Coordinates
version=1
nRows=20
nColumns=38
inDegrees=no

Units are S.I. units (second, meters, Newtons, ...)
If the header above contains a line with 'inDegrees', this indicates whether rotational values are in degrees (yes) or radians (no).

endheader
time	pelvis_tilt	pelvis_list	pelvis_rotation	pelvis_tx	pelvis_ty	pelvis_tz	hip_flexion_r	hip_adduction_r	hip_rotation_r	knee_angle_r	ankle_angle_r	subtalar_angle_r	mtp_angle_r	hip_flexion_l	hip_adduction_l	hip_rotation_l	knee_angle_l	ankle_angle_l	subtalar_angle_l	mtp_angle_l	lumbar_extension	lumbar_bending	lumbar_rotation	arm_flex_r	arm_add_r	arm_rot_r	elbow_flex_r	pro_sup_r	wrist_flex_r	wrist_dev_r	arm_flex_l	arm_add_l	arm_rot_l	elbow_flex_l	pro_sup_l	wrist_flex_l	wrist_dev_l
1.31	2.68944	1.46087	-0.973709	0.643802	0.721049	1.05584	0.274054	0.0451762	0.0310247	0.619465	-0.282695	0	0	-0.257067	-0.213471	-0.308954	0.772256	-0.469384	0	0	-0.294165	0.101769	0.108806	0.110977	-0.574801	0.986163	0.740887	0.592384	0	0	0.0313457	-0.32263	0.51539	0.712441	1.01457	0	0
1.32	2.73837	1.45471	-1.02444	0.644873	0.73237	1.05798	0.25311	0.0456638	0.0231197	0.616758	-0.284827	0	0	-0.241034	-0.222908	-0.304244	0.82317	-0.500336	0	0	-0.302732	0.0977726	0.111063	0.115444	-0.572836	0.995003	0.740549	0.582788	0	0	0.0316848	-0.326537	0.515559	0.714467	1.01375	0	0
1.33	2.7922	1.44891	-1.07994	0.645937	0.743438	1.06003	0.23227	0.0441599	0.0136568	0.615067	-0.284828	0	0	-0.22344	-0.230417	-0.298223	0.873692	-0.527056	0	0	-0.311724	0.0922478	0.113076	0.120145	-0.571184	1.00391	0.741156	0.573438	0	0	0.0324611	-0.331774	0.517196	0.718004	1.01142	0	0
1.34	2.84227	1.44494	-1.13181	0.646999	0.754184	1.06177	0.214716	0.0413596	0.00377827	0.615728	-0.28337	0	0	-0.202061	-0.235877	-0.290746	0.923192	-0.547839	0	0	-0.319115	0.0854455	0.115269	0.123876	-0.569014	1.01015	0.741514	0.566996	0	0	0.0339319	-0.3373	0.519445	0.721408	1.00852	0	0
1.35	2.88976	1.44154	-1.18044	0.647901	0.764618	1.06336	0.198522	0.0381653	-0.00474603	0.616949	-0.281235	0	0	-0.178738	-0.239756	-0.281801	0.969414	-0.56407	0	0	-0.326132	0.0783493	0.11684	0.127592	-0.566793	1.0156	0.741859	0.562003	0	0	0.0360654	-0.342851	0.522123	0.724647	1.0048	0	0
1.36	2.93242	1.43883	-1.22353	0.648579	0.774793	1.06481	0.183935	0.0348958	-0.0124486	0.618246	-0.279219	0	0	-0.153983	-0.241911	-0.270804	1.01238	-0.567245	0	0	-0.332229	0.0714934	0.117737	0.131337	-0.564635	1.02085	0.742026	0.55898	0	0	0.0384804	-0.348106	0.524965	0.727445	1.00135	0	0
1.37	2.96991	1.43599	-1.26061	0.648981	0.784766	1.06628	0.169409	0.0319915	-0.0191228	0.618458	-0.277805	0	0	-0.129143	-0.242855	-0.258609	1.05257	-0.550879	0	0	-0.338419	0.0655644	0.11801	0.135003	-0.563137	1.02524	0.742754	0.55627	0	0	0.0410104	-0.352722	0.527151	0.730133	0.997604	0	0
1.38	3.00208	1.43349	-1.29207	0.64908	0.794554	1.06781	0.155152	0.0292659	-0.0245251	0.617468	-0.276972	0	0	-0.104086	-0.242857	-0.247875	1.0896	-0.52259	0	0	-0.344338	0.0605227	0.118169	0.13834	-0.562295	1.02795	0.743774	0.552652	0	0	0.043864	-0.355982	0.528347	0.731911	0.99501	0	0
1.39	3.03022	1.43067	-1.31945	0.648925	0.804222	1.06946	0.139788	0.0269387	-0.0272331	0.61488	-0.276031	0	0	-0.0798702	-0.242376	-0.24045	1.12196	-0.493381	0	0	-0.350607	0.0562942	0.118439	0.141239	-0.561921	1.02873	0.745047	0.548485	0	0	0.0469414	-0.357894	0.528419	0.73291	0.994289	0	0
1.4	3.05576	1.42751	-1.34474	0.648627	0.813789	1.0712	0.123396	0.0246755	-0.028304	0.611183	-0.274702	0	0	-0.0566115	-0.241346	-0.236473	1.14891	-0.464376	0	0	-0.35729	0.0524089	0.119178	0.144275	-0.562252	1.02985	0.747023	0.545078	0	0	0.0499792	-0.358966	0.527654	0.733883	0.994443	0	0
1.41	3.08184	1.42441	-1.37185	0.64835	0.823174	1.07287	0.107277	0.0215423	-0.0300808	0.607579	-0.273495	0	0	-0.0341391	-0.239537	-0.235652	1.17022	-0.43685	0	0	-0.364137	0.0480215	0.120812	0.14737	-0.563271	1.03048	0.750017	0.541984	0	0	0.0529436	-0.359714	0.526148	0.735475	0.995271	0	0
1.42	3.11075	1.42038	-1.40374	0.648299	0.83233	1.07454	0.090605	0.0178052	-0.0315572	0.603858	-0.272777	0	0	-0.0142696	-0.23719	-0.238018	1.18548	-0.409934	0	0	-0.37226	0.0425932	0.123956	0.151012	-0.565559	1.03097	0.754886	0.540141	0	0	0.0559885	-0.360914	0.524684	0.738687	0.996074	0	0
1.43	3.13398	1.41787	-1.42897	0.648067	0.841605	1.07607	0.075612	0.0143439	-0.0346153	0.59986	-0.272762	0	0	0.00677458	-0.234885	-0.239853	1.19498	-0.383043	0	0	-0.37788	0.0378686	0.126396	0.153619	-0.566561	1.03025	0.757615	0.538395	0	0	0.0591246	-0.361337	0.52368	0.739849	0.997619	0	0
1.44	-3.13112	1.4168	-1.44799	0.647661	0.850997	1.07749	0.0621678	0.0113393	-0.0397305	0.595853	-0.273193	0	0	0.028687	-0.232685	-0.241053	1.19882	-0.35847	0	0	-0.38129	0.0339526	0.127894	0.155712	-0.565986	1.02942	0.757729	0.537003	0	0	0.0623882	-0.361105	0.523109	0.738831	0.999232	0	0
1.45	-3.11294	1.41628	-1.46716	0.647234	0.86033	1.07883	0.0499063	0.00794876	-0.0460647	0.592961	-0.273701	0	0	0.0499356	-0.229954	-0.242529	1.19688	-0.334127	0	0	-0.384078	0.0298657	0.129305	0.158227	-0.564806	1.02988	0.756737	0.53693	0	0	0.065903	-0.360581	0.522634	0.736785	1.00082	0	0
1.46	-3.09278	1.41619	-1.48865	0.64684	0.869566	1.08007	0.0381685	0.00416942	-0.0529219	0.589665	-0.274192	0	0	0.0704778	-0.226855	-0.245164	1.18869	-0.316603	0	0	-0.386587	0.0252594	0.130639	0.161034	-0.563133	1.03025	0.754941	0.536541	0	0	0.0694604	-0.360099	0.522273	0.734393	1.00158	0	0
1.47	-3.07067	1.41696	-1.51228	0.646409	0.878698	1.08113	0.0274153	-7.47858e-05	-0.0610968	0.585949	-0.27484	0	0	0.0910962	-0.223167	-0.248571	1.17485	-0.301689	0	0	-0.388224	0.0201799	0.131995	0.164018	-0.560965	1.0312	0.752277	0.536493	0	0	0.0731408	-0.359473	0.522057	0.731511	1.00248	0	0
1.48	-3.04787	1.41786	-1.53656	0.645932	0.887781	1.08214	0.016327	-0.00455283	-0.0688305	0.581471	-0.27526	0	0	0.110706	-0.219276	-0.252557	1.15521	-0.291506	0	0	-0.38957	0.0150233	0.132998	0.167254	-0.558341	1.03243	0.74895	0.536547	0	0	0.0767874	-0.35892	0.52195	0.728378	1.00321	0	0
1.49	-3.02366	1.41911	-1.56251	0.645434	0.896841	1.08302	0.00564486	-0.00941128	-0.0763036	0.576402	-0.275854	0	0	0.129585	-0.215164	-0.257566	1.13048	-0.286477	0	0	-0.390189	0.00957886	0.133929	0.170506	-0.555647	1.03351	0.745516	0.536392	0	0	0.0800754	-0.35862	0.521734	0.72568	1.00353	0	0
1.5	-2.99754	1.42104	-1.59043	0.644909	0.905936	1.08368	-0.00318742	-0.0137296	-0.082545	0.573917	-0.275187	0	0	0.147803	-0.210935	-0.263486	1.1014	-0.285359	0	0	-0.389326	0.00380127	0.134619	0.174006	-0.55274	1.03582	0.741649	0.537865	0	0	0.0827234	-0.358698	0.521475	0.723523	1.00345	0	0
